<svg id="visual" viewBox="0 0 1300 500" width="1300" height="500" xmlns="http://www.w3.org/2000/svg" xmlns:xlink="http://www.w3.org/1999/xlink" version="1.1"><rect x="0" y="0" width="1300" height="500" fill="#0a0a0a"></rect><defs><linearGradient id="grad1_0" x1="61.5%" y1="100%" x2="100%" y2="0%"><stop offset="-2.0000000000000036%" stop-color="#0a0a0a" stop-opacity="1"></stop><stop offset="102%" stop-color="#0a0a0a" stop-opacity="1"></stop></linearGradient></defs><defs><linearGradient id="grad2_0" x1="0%" y1="100%" x2="38.5%" y2="0%"><stop offset="-2.0000000000000036%" stop-color="#0a0a0a" stop-opacity="1"></stop><stop offset="102%" stop-color="#0a0a0a" stop-opacity="1"></stop></linearGradient></defs><g transform="translate(1300, 500)"><path d="M-350 0C-331 -42.5 -311.9 -85 -290.1 -120.2C-268.3 -155.3 -243.7 -183 -219.2 -219.2C-194.7 -255.4 -170.4 -300.1 -133.9 -323.4C-97.4 -346.6 -48.7 -348.3 0 -350L0 0Z" fill="#FBAE3C"></path></g><g transform="translate(0, 0)"><path d="M350 0C329.3 39.4 308.7 78.8 294.7 122.1C280.8 165.4 273.5 212.7 247.5 247.5C221.5 282.3 176.8 304.7 132.4 319.7C88 334.7 44 342.3 0 350L0 0Z" fill="#FBAE3C"></path></g></svg>